<?xml version="1.0" encoding="UTF-8" standalone="no"?>
<!-- Created with Inkscape (http://www.inkscape.org/) -->

<svg
   xmlns:dc="http://purl.org/dc/elements/1.1/"
   xmlns:cc="http://creativecommons.org/ns#"
   xmlns:rdf="http://www.w3.org/1999/02/22-rdf-syntax-ns#"
   xmlns:svg="http://www.w3.org/2000/svg"
   xmlns="http://www.w3.org/2000/svg"
   xmlns:sodipodi="http://sodipodi.sourceforge.net/DTD/sodipodi-0.dtd"
   xmlns:inkscape="http://www.inkscape.org/namespaces/inkscape"
   width="160"
   height="150"
   viewBox="0 0 42.333332 39.687501"
   version="1.1"
   id="svg8"
   inkscape:version="0.92.4 (5da689c313, 2019-01-14)"
   sodipodi:docname="logopag1.svg">
  <defs
     id="defs2" />
  <sodipodi:namedview
     id="base"
     pagecolor="#ffffff"
     bordercolor="#666666"
     borderopacity="1.0"
     inkscape:pageopacity="0.0"
     inkscape:pageshadow="2"
     inkscape:zoom="0.7"
     inkscape:cx="209.57271"
     inkscape:cy="93.750547"
     inkscape:document-units="mm"
     inkscape:current-layer="layer1"
     showgrid="false"
     inkscape:window-width="1920"
     inkscape:window-height="1017"
     inkscape:window-x="-8"
     inkscape:window-y="-8"
     inkscape:window-maximized="1"
     units="px"
     inkscape:showpageshadow="true"
     showborder="false"
     inkscape:pagecheckerboard="true" />
  <metadata
     id="metadata5">
    <rdf:RDF>
      <cc:Work
         rdf:about="">
        <dc:format>image/svg+xml</dc:format>
        <dc:type
           rdf:resource="http://purl.org/dc/dcmitype/StillImage" />
        <dc:title></dc:title>
      </cc:Work>
    </rdf:RDF>
  </metadata>
  <g
     inkscape:label="Capa 1"
     inkscape:groupmode="layer"
     id="layer1"
     transform="translate(0,-257.31248)">
    <g
       id="g3862"
       transform="matrix(0.19866554,0,0,0.18709517,-16.459596,195.16405)">
      <g
         transform="matrix(0.87909176,0,0,0.9690464,4.7545594,12.906605)"
         id="g3770">
        <path
           style="fill:#000000;stroke-width:0.35277778"
           d="m 47.027901,205.12189 c -2.21394,-1.1386 -1.78893,-3.9593 0.7718,-5.12234 0.7909,-0.35921 1.71866,-0.6566 2.06169,-0.66086 0.34303,-0.004 2.16866,-1.3714 4.05694,-3.03808 1.88829,-1.66669 4.04209,-3.37325 4.78622,-3.79236 l 1.35297,-0.76203 -0.20302,-2.0475 c -0.40853,-4.12013 -3.52017,-11.31665 -6.74143,-15.59138 -1.79887,-2.38717 -7.3132,-12.9872 -8.4591,-16.26067 -0.41385,-1.18226 -1.18658,-2.89032 -1.71717,-3.7957 -1.13206,-1.93172 -1.98938,-4.22968 -1.98938,-5.33234 0,-0.43006 1.12103,-2.26252 2.49117,-4.07213 1.37015,-1.80961 2.7398,-3.77934 3.04366,-4.37718 0.30386,-0.59784 1.58937,-2.59511 2.85668,-4.43837 6.81155,-9.90721 14.69593,-17.65389 19.46439,-19.12448 1.38363,-0.42671 1.46152,-0.51981 1.26588,-1.51302 -0.36263,-1.84099 -4.69667,-10.16123 -6.19427,-11.89142 -0.92284,-1.06615 -2.28312,-2.07671 -3.7989,-2.82222 -1.49556,-0.735568 -3.29609,-2.066743 -4.91097,-3.630808 -2.15102,-2.083336 -2.58635,-2.703869 -2.7843,-3.96875 -0.12904,-0.824618 -0.25403,-1.496515 -0.27774,-1.493104 -0.0237,0.0035 -2.42637,2.344974 -5.33926,5.203472 -5.51697,5.41396 -9.14204,8.39596 -10.67398,8.78045 -1.1209,0.28133 -2.92305,-0.16745 -10.48819,-2.61178 -6.71861,-2.17082 -11.61857,-4.177638 -13.32347,-5.456746 -0.62723,-0.470581 -2.22741,-1.359331 -3.5559499,-1.974999 -3.44471,-1.596326 -5.11915,-3.040087 -6.1012,-5.260668 -0.89402,-2.021547 -1.04135,-2.919264 -0.47911,-2.919264 0.19403,0 0.35278,-0.21458 0.35278,-0.476846 0,-0.262262 0.47625,-0.975194 1.05833,-1.584286 0.58209,-0.609096 1.05834,-1.26764 1.05834,-1.463435 0,-0.195792 0.22114,-0.355988 0.49142,-0.355988 0.27028,0 0.58912,-0.254597 0.70853,-0.565768 0.12396,-0.323028 0.44287,-0.479135 0.7433,-0.363851 0.36105,0.13855 0.52619,-0.02527 0.52619,-0.521963 0,-0.421139 0.18443,-0.663328 0.44097,-0.579092 0.8259,0.271177 1.89475,2.286388 3.0980299,5.841044 l 1.20127,3.548704 2.30417,1.366365 c 4.39471,2.606044 6.11772,3.121865 13.85202,4.146892 2.27673,0.301738 4.57861,0.63541 5.11528,0.741497 0.87991,0.173937 1.36726,-0.224349 4.96122,-4.054567 2.19201,-2.336098 4.46172,-4.528777 5.0438,-4.872626 0.70687,-0.417552 1.46413,-1.468836 2.2802,-3.165507 1.43435,-2.982143 3.83867,-5.59144 6.57536,-7.135929 2.96414,-1.672861 3.22227,-2.065411 2.71703,-4.13191 -0.46878,-1.917375 -1.2814,-3.711285 -1.84577,-4.074657 -0.20452,-0.131685 -1.02975,0.146128 -1.83385,0.617361 -2.27399,1.332646 -3.25566,1.159531 -5.01598,-0.884555 -0.82462,-0.957548 -1.4993,-1.839076 -1.4993,-1.958954 0,-0.565965 -2.01133,-2.649687 -2.55764,-2.649696 -0.78931,-1.3e-5 -0.83144,-1.626981 -0.0882,-3.405813 0.70477,-1.686763 0.66946,-2.300519 -0.23181,-4.029657 -0.94968,-1.82199 -1.28549,-5.978 -0.64241,-7.950283 0.66409,-2.036683 5.05828,-6.765648 7.22422,-7.774593 2.11417,-0.984832 5.78356,-1.115882 8.51688,-0.304174 1.84362,0.547495 6.54425,3.615635 7.1225,4.648915 0.24022,0.429267 0.82485,0.604582 2.07663,0.622728 4.0113,0.05815 7.06002,4.785516 8.20635,12.724811 0.67471,4.672931 0.43391,4.287086 2.8458,4.55996 1.17874,0.133359 3.34944,0.550986 4.82379,0.928061 1.62728,0.416188 3.87142,0.686407 5.71101,0.68767 7.907175,0.0054 15.617799,2.236464 17.776829,5.143653 0.69836,0.940361 4.76515,17.904298 5.71835,23.853193 0.32017,1.998161 0.84143,4.426768 1.15835,5.396907 0.74784,2.289276 0.81481,7.923836 0.10435,8.780706 -0.27362,0.33001 -0.7185,0.5152 -0.98862,0.41155 -0.27012,-0.10366 -0.89894,0.0787 -1.39736,0.40532 -0.8405,0.55072 -0.93704,0.55165 -1.33104,0.0128 -0.38894,-0.53191 -0.48657,-0.51919 -1.15637,0.1506 -0.87127,0.87127 -1.50828,0.59643 -1.50828,-0.65074 0,-0.7734 -0.11338,-0.86714 -0.79375,-0.65626 -2.20925,0.68474 -2.23393,0.6766 -2.85111,-0.93948 -0.64522,-1.68943 -0.77488,-4.68526 -0.26128,-6.03614 0.17995,-0.47332 1.04411,-1.317099 1.92033,-1.875045 1.00402,-0.639329 1.67219,-1.355443 1.80696,-1.936609 0.11761,-0.507189 -0.25898,-3.251144 -0.83687,-6.097676 -0.83912,-4.133292 -1.27258,-5.510487 -2.15254,-6.83895 -0.60601,-0.914904 -1.90922,-3.250949 -2.896016,-5.191227 l -1.794185,-3.527778 -9.287418,-0.01633 -9.28742,-0.01637 -0.10071,7.953851 c -0.0858,6.779161 -0.006,8.318384 0.542,10.422146 0.90916,3.491526 2.18875,5.659755 4.0987,6.945168 2.14139,1.44117 7.07664,5.61354 7.07664,5.98276 0,0.1611 0.54888,0.52226 1.21974,0.80256 1.671991,0.6986 4.195305,3.30392 5.287579,5.45942 1.195402,2.35901 1.947697,5.65886 1.954131,8.57156 l 0.0052,2.36032 3.465709,4.61532 c 3.98575,5.30787 7.39564,10.81727 8.74149,14.12376 1.52323,3.74225 1.644,3.93976 3.69745,6.04739 1.63102,1.67404 2.78422,2.41111 6.70278,4.28413 5.32006,2.54291 8.56413,4.77825 10.1917,7.02265 4.56262,6.29182 5.84215,7.88631 8.80898,10.97731 4.29518,4.47497 5.61979,5.37415 8.92147,6.05613 3.84001,0.79318 6.09088,1.51588 6.99081,2.24461 l 0.79331,0.64238 -0.62038,2.53152 c -0.75033,3.06177 -2.48214,6.76079 -4.10756,8.77346 -0.65905,0.81605 -1.99202,2.86259 -2.96216,4.54785 -2.8456,4.94319 -5.5534,7.55393 -7.26978,7.00917 -1.28206,-0.40691 -1.83009,-3.23069 -0.88962,-4.5838 0.61104,-0.87914 1.16637,-3.46735 1.47513,-6.87501 l 0.24022,-2.65137 -1.30416,-1.56099 c -0.90951,-1.08861 -1.25714,-1.80699 -1.14877,-2.3739 0.12736,-0.66624 -0.58362,-1.50131 -3.94048,-4.62822 -2.25273,-2.09842 -5.44525,-4.91259 -7.09449,-6.25372 -1.64923,-1.34113 -4.03048,-3.37282 -5.29166,-4.51488 -5.67575,-5.13963 -12.47807,-9.50665 -15.52223,-9.9651 -1.58948,-0.23937 -3.52777,-1.60172 -3.52777,-2.47953 0,-0.59205 -4.66712,-4.82115 -7.055551,-6.39338 -6.600618,-4.34499 -13.499178,-11.63835 -15.026048,-15.88599 -0.0181,-0.0505 -2.26489,1.39819 -4.99275,3.21928 -5.85543,3.90901 -11.05357,6.53759 -15.42172,7.79841 -3.41331,0.98521 -5.7772,2.20021 -7.37048,3.78828 -0.88489,0.882 -0.94898,1.08122 -0.52916,1.64502 0.26271,0.35282 1.31146,1.73759 2.33056,3.07726 2.16185,2.8419 5.06356,8.30659 5.87686,11.06766 0.31253,1.06102 0.66983,3.28352 0.79399,4.93889 0.17235,2.29782 0.67002,4.32231 2.10394,8.55852 2.30122,6.79849 3.50317,9.23151 5.39936,10.92953 2.00604,1.79639 3.31939,4.75764 3.3511,7.55585 0.0186,1.64563 -0.13417,2.34906 -0.62914,2.89606 -0.8598,0.95018 -5.75004,2.69914 -8.91725,3.18919 -1.3835,0.21406 -3.52663,0.7203 -4.7625,1.12498 -3.186,1.04322 -12.27694,1.35255 -13.98184,0.47575 z M 66.027571,64.5083 c 0.25749,-0.48112 0.42651,-2.881275 0.45339,-6.438194 0.0439,-5.81461 -0.23073,-7.258604 -1.38067,-7.258604 -0.40126,0 -0.52022,0.532237 -0.53224,2.38125 -0.0163,2.505877 -0.59683,4.65507 -1.53848,5.695575 -0.98714,1.090781 -0.48978,3.992355 0.95877,5.593314 0.90344,0.9985 1.51484,1.006493 2.03923,0.02666 z"
           id="path3751"
           inkscape:connector-curvature="0" />
        <g
           id="g3735"
           transform="matrix(0.92104367,0,0,0.96172574,-67.726038,-2.1644667)">
          <path
             style="fill:#d0d0d0;stroke-width:0.347179"
             d="m 264.2434,219.57763 c -0.35486,-0.20621 -1.83905,-0.51901 -3.2982,-0.69511 -2.25887,-0.27261 -2.98827,-0.54134 -4.90968,-1.80882 -3.54484,-2.3384 -3.81612,-2.40945 -10.06819,-2.63695 -4.84344,-0.17624 -5.90648,-0.31442 -6.88076,-0.89435 -1.71354,-1.01996 -2.60353,-2.65001 -2.3302,-4.26785 0.45047,-2.66628 2.21221,-4.93971 9.19645,-11.86751 3.75383,-3.7235 9.64145,-10.05083 13.08359,-14.06075 8.63884,-10.0638 14.59528,-15.48241 17.57194,-15.98532 1.74444,-0.29472 1.56601,-0.49717 -3.78124,-4.29027 -3.45419,-2.45024 -4.90043,-3.77042 -7.94857,-7.25574 -2.04935,-2.34328 -3.7807,-4.20591 -3.84744,-4.13917 -0.0667,0.0667 -0.92025,1.59168 -1.89669,3.38875 -3.00607,5.53248 -7.2664,11.60948 -11.43011,16.30407 -1.27016,1.43212 -3.66564,4.42413 -5.32329,6.64892 -3.60939,4.84429 -4.54316,5.70455 -8.15331,7.51149 -4.21326,2.1088 -6.50047,2.40092 -12.79843,1.6346 -4.49697,-0.54718 -6.92478,-0.59916 -19.37775,-0.41491 -15.14385,0.22407 -17.64078,0.45515 -23.78409,2.20112 -1.62306,0.46128 -4.74767,1.71876 -6.94358,2.7944 -3.6944,1.80965 -4.26541,2.23024 -7.64617,5.63194 -4.99305,5.02399 -5.32718,5.30098 -6.05677,5.021 -0.52436,-0.20121 -0.59079,-0.5382 -0.43808,-2.22234 0.099,-1.09183 0.41625,-2.35654 0.70498,-2.81044 0.28873,-0.45392 0.72173,-1.72784 0.96221,-2.83094 0.26402,-1.21104 1.30898,-3.54935 2.63755,-5.90205 1.21016,-2.14301 2.92763,-5.77116 3.8166,-8.06254 1.27454,-3.28525 1.92535,-4.47814 3.07795,-5.64166 2.09316,-2.11301 2.95059,-1.99508 6.31705,0.86888 1.77583,1.51076 1.8506,1.53768 3.64538,1.31252 5.51465,-0.69183 19.14454,-3.10994 23.35746,-4.1439 7.51681,-1.84481 10.34714,-2.29057 14.53308,-2.28888 3.85694,0.002 3.8763,0.006 7.15537,1.554 l 3.28797,1.55243 0.41677,-1.12002 c 0.22923,-0.61602 1.36189,-4.08841 2.51702,-7.71643 1.49649,-4.70017 3.16213,-8.89183 5.79427,-14.58152 5.56933,-12.03879 5.66186,-12.27965 6.2296,-16.21543 0.44122,-3.05869 0.78655,-4.12513 2.39601,-7.39926 1.03427,-2.10402 2.99355,-5.38487 4.35396,-7.29076 4.04249,-5.66341 4.85438,-7.88411 7.31008,-19.994685 1.68845,-8.326845 4.26632,-16.042989 6.85948,-20.53194 l 1.75487,-3.037817 h -2.25815 c -3.61663,0 -14.98486,1.561553 -15.56075,2.137443 -0.3338,0.333805 -1.53545,7.400651 -1.74985,10.290753 l -0.23946,3.227953 1.19772,1.806143 c 2.20878,3.330814 3.04477,7.50657 3.04477,15.20855 0,3.69577 -0.0938,4.53509 -0.52519,4.70064 -1.13186,0.43433 -1.83208,-1.00331 -3.30838,-6.79258 -0.55252,-2.16673 -0.90991,-1.31287 -1.20955,2.88988 -0.2947,4.13328 -0.5812,5.06809 -1.55329,5.06809 -1.053,0 -1.38562,-1.29323 -1.41221,-5.49067 -0.0259,-4.09138 -0.15865,-4.03605 -1.43153,0.59681 -0.86155,3.13576 -1.6069,4.06379 -2.5258,3.14489 -0.46438,-0.46438 -0.46462,-0.90486 -0.002,-3.98667 0.28595,-1.90553 0.59631,-3.77707 0.6897,-4.15896 0.0934,-0.3819 -0.13897,0.009 -0.51634,0.86794 -1.31806,3.00115 -1.92401,3.99256 -2.44027,3.99256 -0.83926,0 -0.79861,-1.59832 0.12938,-5.08785 0.47455,-1.78445 0.95841,-3.94748 1.07525,-4.806749 0.11683,-0.859268 0.5477,-3.104603 0.95747,-4.989633 0.79469,-3.655704 0.81304,-3.201577 -0.43676,-10.807012 -0.47321,-2.879614 -0.3924,-9.43489 0.13174,-10.686905 0.80176,-1.915151 3.03562,-3.608013 5.85317,-4.435641 1.39263,-0.409095 4.64124,-1.418555 7.21904,-2.243243 8.75449,-2.800726 18.56827,-5.110174 21.87228,-5.147134 2.91599,-0.03262 7.99495,1.203679 12.07419,2.939054 l 3.22114,1.370319 1.28068,-0.607724 c 1.62305,-0.770189 3.68336,-2.819967 4.54534,-4.522109 0.58099,-1.147271 0.64505,-1.851385 0.4988,-5.482474 -0.21996,-5.461293 0.37766,-7.235853 3.36972,-10.005979 2.45727,-2.274994 4.2757,-2.840436 8.28603,-2.576542 5.14619,0.338637 10.9696,3.76666 12.93149,7.612285 1.45718,2.856307 1.28913,7.577015 -0.35697,10.028004 l -0.9734,1.44936 0.62947,2.447198 c 0.70077,2.724352 0.52174,3.504948 -0.88483,3.857976 -0.48241,0.121077 -0.87711,0.42337 -0.87711,0.671764 0,0.248393 -0.486,0.987511 -1.08,1.642485 -0.59401,0.654974 -1.36582,1.846011 -1.71515,2.646748 -0.79974,1.833189 -1.86867,2.091951 -6.29618,1.524145 -2.71873,-0.348663 -3.24664,-0.330805 -3.88429,0.131393 -0.40587,0.294193 -2.00955,1.392422 -3.56372,2.440511 -1.55418,1.048087 -2.92516,2.164597 -3.04663,2.481131 -0.13612,0.354733 0.30785,1.454822 1.15732,2.867625 1.74549,2.903035 3.14609,7.147454 3.39135,10.277228 0.15044,1.919754 -0.004,3.232462 -0.73425,6.249222 -1.00853,4.165177 -1.558,12.157607 -1.09217,15.886067 l 0.24909,1.99365 1.9713,0.003 c 1.08422,0.002 3.6127,-0.25665 5.61886,-0.57457 l 3.64755,-0.57803 -0.21817,-2.98401 c -0.11999,-1.64121 -0.40361,-3.65992 -0.63026,-4.48603 -0.47435,-1.72897 -0.11008,-2.49056 1.19126,-2.49056 0.9737,0 1.4064,0.50941 2.08981,2.46023 0.72533,2.0705 1.60856,2.69533 3.50745,2.48129 1.79732,-0.20258 3.24941,0.57484 3.26811,1.74968 0.007,0.42523 0.23557,1.16373 0.50846,1.6411 0.92831,1.62391 0.41956,6.83649 -0.78479,8.04084 -0.23854,0.23853 -2.012,0.51328 -4.15541,0.64376 -3.52702,0.2147 -3.95606,0.32666 -7.55824,1.97233 -5.35394,2.44598 -11.11983,3.76722 -13.83941,3.17128 -1.77835,-0.38969 -4.8421,-2.43691 -5.36525,-3.5851 -0.45491,-0.99842 -0.96867,-5.0723 -1.29702,-10.28474 -0.12774,-2.02786 -0.33996,-3.86127 -0.47159,-4.07426 -0.2365,-0.38267 -7.09003,4.57948 -8.50713,6.15942 -0.66513,0.74156 -1.71029,5.3295 -2.64438,11.60808 l -0.43708,2.93782 1.07254,2.29196 c 0.68518,1.46421 1.93232,3.20182 3.45321,4.81129 3.39406,3.59174 5.76481,7.23227 11.70149,17.9688 4.53786,8.20676 4.8207,8.94968 4.62046,12.13609 -0.34106,5.42718 -2.37896,7.9663 -10.67889,13.30534 -6.47316,4.16394 -24.29911,16.82064 -27.62664,19.61533 -2.87829,2.41739 -4.48116,4.55722 -4.16346,5.55821 0.12294,0.38735 1.11584,1.37264 2.20645,2.18953 1.09061,0.81689 2.84219,2.22383 3.89241,3.12652 1.05021,0.90269 2.76875,2.02782 3.81897,2.50029 2.25289,1.01353 3.69996,2.06444 5.04642,3.66488 l 0.98119,1.16627 -0.84394,0.6487 c -0.93643,0.71979 -2.58234,0.84331 -3.5722,0.26809 z"
             id="path3749"
             inkscape:connector-curvature="0" />
          <path
             style="fill:#aeaeae;stroke-width:0.347179"
             d="m 263.67346,219.43949 c -0.66832,-0.25668 -2.10499,-0.56414 -3.19259,-0.68325 -1.50218,-0.1645 -2.50353,-0.55892 -4.16615,-1.64101 -3.61291,-2.3514 -4.87995,-2.69615 -9.91714,-2.69836 -5.19044,-0.002 -6.64494,-0.33326 -8.35629,-1.9016 -1.07157,-0.98202 -1.25853,-1.37021 -1.22763,-2.54892 0.0754,-2.87705 2.87417,-6.88768 7.59983,-10.89071 2.90092,-2.45731 8.69594,-8.73609 17.24309,-18.68253 6.00217,-6.98481 12.39146,-12.54382 14.97419,-13.02835 0.70237,-0.13176 1.27703,-0.3585 1.27703,-0.50387 0,-0.14536 -2.02774,-1.70195 -4.50609,-3.45908 -3.69869,-2.62234 -5.19467,-3.96774 -8.34896,-7.50859 -2.11357,-2.3726 -3.89851,-4.31381 -3.96654,-4.31381 -0.068,0 -1.11509,1.80407 -2.3268,4.00904 -2.55854,4.6558 -6.99347,10.97779 -10.709,15.26567 -1.43212,1.65272 -4.08804,4.97379 -5.90205,7.38017 -3.57754,4.74578 -5.86811,6.65648 -9.69803,8.08967 -3.6382,1.36146 -5.29836,1.48895 -10.76306,0.82652 -4.34759,-0.52702 -6.99262,-0.58015 -19.96279,-0.401 -14.26972,0.19711 -15.14491,0.24699 -19.20188,1.09445 -4.89782,1.0231 -7.49754,1.93961 -11.98552,4.22539 -2.70427,1.37731 -3.74705,2.18054 -6.66564,5.13433 -4.5737,4.62888 -5.70264,5.52743 -6.31068,5.0228 -0.66945,-0.5556 -0.57005,-2.6587 0.20651,-4.36925 0.36438,-0.80263 0.89714,-2.37514 1.1839,-3.49447 0.28675,-1.11933 1.45875,-3.72076 2.60443,-5.78095 1.14568,-2.0602 2.50635,-4.78403 3.02371,-6.05296 2.67788,-6.56802 3.35144,-7.69939 5.13201,-8.62016 1.36273,-0.70469 2.14458,-0.42437 4.56355,1.63618 l 2.08307,1.77443 2.25667,-0.23018 c 4.39916,-0.44873 18.29896,-2.89668 23.27241,-4.0986 7.72254,-1.8663 10.51713,-2.31661 14.34807,-2.31199 3.27522,0.004 3.71353,0.09 6.29766,1.23707 1.52759,0.67807 3.12135,1.37244 3.54169,1.54305 0.73271,0.29741 0.83707,0.078 2.52932,-5.31643 2.97756,-9.49175 3.30906,-10.31696 9.03809,-22.49864 2.90774,-6.18274 4.15687,-9.69903 4.16346,-11.72005 0.0104,-3.18805 2.56479,-8.73036 6.61142,-14.34478 3.93936,-5.46561 5.42612,-9.6217 7.49237,-20.944107 1.34593,-7.375349 4.58052,-16.433482 7.61229,-21.317433 l 0.94866,-1.528226 -4.30406,0.207934 c -4.25105,0.205375 -9.91942,0.948543 -12.46694,1.63452 -1.28069,0.344857 -1.32405,0.410598 -1.89014,2.86655 -0.31866,1.38248 -0.75594,4.41462 -0.97174,6.738091 l -0.39237,4.224492 1.27029,2.058028 c 0.69866,1.131919 1.44015,2.504807 1.64776,3.050864 1.25552,3.302259 1.88599,15.622567 0.84372,16.487567 -0.8974,0.74478 -1.57399,-0.34771 -2.55657,-4.12812 -0.49379,-1.8998 -1.05402,-3.50901 -1.24497,-3.57603 -0.20476,-0.0719 -0.51482,1.56425 -0.75584,3.98834 -0.48786,4.90682 -0.57134,5.17181 -1.58384,5.02762 -0.99831,-0.14216 -1.21136,-1.1211 -1.26463,-5.81066 -0.0226,-1.98905 -0.11479,-3.54273 -0.2049,-3.45263 -0.0901,0.0901 -0.57283,1.71751 -1.07272,3.61645 -0.95529,3.62889 -1.47822,4.55213 -2.38191,4.20535 -0.70917,-0.27213 -0.72037,-2.39295 -0.0317,-5.99248 0.28381,-1.48335 0.45729,-2.75572 0.38552,-2.8275 -0.0718,-0.0718 -0.5638,0.97391 -1.09339,2.32374 -0.99968,2.548 -1.60469,3.35774 -2.2232,2.97548 -0.53846,-0.33278 -0.44467,-1.46394 0.36119,-4.35611 0.39796,-1.42828 1.02703,-4.39352 1.39794,-6.589426 0.3709,-2.195908 0.82558,-4.539366 1.01039,-5.207685 0.4909,-1.775238 0.41679,-3.740549 -0.25718,-6.819651 -0.41365,-1.889807 -0.60029,-4.335739 -0.60757,-7.962082 -0.0105,-5.233482 -0.0103,-5.234518 0.98446,-6.539165 1.3269,-1.740175 2.59927,-2.475963 6.12222,-3.540348 1.62306,-0.490375 5.29448,-1.641301 8.1587,-2.557616 7.19287,-2.30112 15.67213,-4.241893 19.37038,-4.433582 3.59706,-0.186445 7.84587,0.71009 12.04932,2.542507 3.97075,1.730974 4.12822,1.742051 6.07711,0.427484 0.9365,-0.631692 2.25666,-1.926409 2.9337,-2.877147 l 1.23097,-1.728617 -0.10849,-4.247672 c -0.13873,-5.431353 0.42034,-7.427326 2.81395,-10.046313 2.08803,-2.284649 4.42917,-3.257151 7.80973,-3.244149 5.99398,0.02305 13.10846,4.501796 14.47826,9.114435 0.89269,3.00602 0.47771,6.577092 -1.02886,8.85367 -0.86767,1.311136 -0.87237,1.355148 -0.33751,3.156215 0.73579,2.477686 0.56899,4.00301 -0.45364,4.148236 -0.43006,0.06107 -0.95846,0.451649 -1.17423,0.867947 -0.21577,0.416299 -0.91847,1.408122 -1.56155,2.204052 -0.64307,0.79593 -1.16923,1.670042 -1.16923,1.942471 0,0.616631 -0.96354,1.485682 -1.99608,1.800337 -0.42953,0.130893 -2.28589,0.0583 -4.12526,-0.161315 l -3.3443,-0.399303 -1.42961,1.074205 c -0.78628,0.590813 -1.89829,1.328213 -2.47114,1.638666 -1.69632,0.919317 -3.64538,2.574427 -3.64538,3.095595 0,0.266672 0.54778,1.341173 1.21729,2.387786 1.52433,2.382905 3.33105,7.690994 3.55193,10.435406 0.12506,1.553873 -0.0818,3.097378 -0.81436,6.075633 -0.90915,3.696346 -0.98282,4.507716 -0.99292,10.936136 l -0.0109,6.94358 2.25666,0.11265 c 1.24116,0.062 3.86284,-0.1594 5.82593,-0.49191 l 3.56927,-0.60455 -0.19775,-2.11194 c -0.10876,-1.16156 -0.36278,-2.97972 -0.56449,-4.04035 -0.49882,-2.62292 -0.32319,-3.59864 0.67319,-3.73989 1.11608,-0.15822 1.6754,0.41632 2.33316,2.39664 0.69913,2.10487 1.60082,2.80604 3.27025,2.54298 2.14243,-0.3376 3.00302,0.25199 3.69462,2.53119 0.8003,2.63742 0.88466,5.09971 0.24401,7.12196 -0.63484,2.00392 -1.58922,2.415 -5.40147,2.32661 -2.46261,-0.0571 -2.80847,0.0358 -6.47391,1.73915 -4.27395,1.9861 -8.00856,3.08232 -11.56609,3.39498 -2.81737,0.24761 -4.9091,-0.42637 -6.89698,-2.2223 -1.60438,-1.44946 -1.87562,-2.58736 -2.42428,-10.17034 -0.21415,-2.95971 -0.50945,-5.50921 -0.65623,-5.66556 -0.30874,-0.32891 -7.15744,4.80793 -8.43595,6.32734 -0.8641,1.02692 -1.73933,4.77709 -2.77788,11.90256 l -0.39353,2.70004 1.19122,2.46237 c 0.78159,1.61563 1.99854,3.29905 3.53893,4.89543 3.38371,3.5067 8.24585,11.27147 14.03558,22.41464 2.03179,3.91046 2.20399,4.41425 2.19551,6.42282 -0.0218,5.15594 -2.4092,8.82344 -8.00279,12.29371 -3.71184,2.30283 -15.65011,10.58771 -24.44716,16.96576 -7.53354,5.46198 -10.75299,8.76143 -10.13088,10.38262 0.10563,0.27527 1.06279,1.14374 2.12702,1.92993 1.06423,0.7862 2.72163,2.12811 3.68311,2.98204 0.96147,0.85392 2.95639,2.1601 4.43316,2.9026 1.67298,0.84116 3.24599,1.95858 4.17332,2.96461 l 1.48829,1.61461 -0.85974,0.67627 c -0.98038,0.77116 -2.29077,0.81715 -4.04841,0.14208 z"
             id="path3747"
             inkscape:connector-curvature="0" />
          <path
             style="fill:#8f8f8f;stroke-width:0.347179"
             d="m 264.02064,219.45996 c -0.47737,-0.26901 -1.93925,-0.59777 -3.24863,-0.73058 -1.90323,-0.19305 -2.73876,-0.48269 -4.16615,-1.44423 -3.8266,-2.57775 -4.04829,-2.63947 -10.29135,-2.86521 -6.18502,-0.22363 -7.23727,-0.50318 -8.64882,-2.29768 -2.10843,-2.68043 0.50843,-7.75231 6.68223,-12.95122 3.07956,-2.59328 8.07439,-7.98051 16.76435,-18.08141 7.05534,-8.20086 12.83532,-13.22047 15.79986,-13.72132 l 1.49104,-0.25191 -1.02884,-0.84871 c -0.56586,-0.46678 -2.70032,-2.01593 -4.74324,-3.44254 -2.80295,-1.95735 -4.51779,-3.50627 -6.98838,-6.31222 -5.00111,-5.67998 -4.45683,-5.45484 -6.02462,-2.49204 -1.65118,3.12041 -7.17382,11.51915 -9.17972,13.9604 -0.82476,1.00376 -2.45569,2.91863 -3.62429,4.25527 -1.1686,1.33664 -3.15162,3.83994 -4.40671,5.56289 -4.18733,5.7482 -7.71809,8.26569 -13.19493,9.4082 -2.27854,0.47532 -2.96041,0.46913 -7.29315,-0.0663 -4.09909,-0.50654 -6.96606,-0.56321 -20.13638,-0.39803 -14.67065,0.184 -15.53516,0.2312 -19.34933,1.05628 -4.51604,0.9769 -7.23336,1.93346 -11.66969,4.10799 -2.56308,1.25633 -3.65243,2.07832 -6.55162,4.94364 -5.32979,5.26753 -6.06871,5.85889 -6.68344,5.34871 -0.63741,-0.529 -0.38623,-3.42442 0.40135,-4.62641 0.28369,-0.43297 0.75702,-1.82731 1.05183,-3.09854 0.34804,-1.50071 1.22949,-3.4896 2.5133,-5.67098 1.0875,-1.84782 2.73406,-5.23781 3.65902,-7.53331 1.95431,-4.85006 2.98612,-6.54972 4.42915,-7.29594 1.41908,-0.73384 2.28546,-0.43458 4.69531,1.62183 l 2.0623,1.75983 2.17686,-0.20328 c 4.20838,-0.39298 17.34499,-2.71675 23.1625,-4.09728 8.08492,-1.91859 10.94485,-2.38059 14.74003,-2.38114 3.12963,-3.5e-4 3.39944,0.0627 6.66986,1.56183 1.87456,0.85927 3.48082,1.56231 3.56948,1.56231 0.0887,0 1.27572,-3.45183 2.63794,-7.67074 1.70634,-5.28467 3.45515,-9.7934 5.62209,-14.49472 1.72993,-3.75319 3.8438,-8.34776 4.69749,-10.21014 0.95903,-2.09218 1.68407,-4.28124 1.89733,-5.72845 0.91506,-6.20986 2.66744,-10.22882 7.22791,-16.57665 3.93816,-5.48162 4.5964,-7.45595 7.8094,-23.423722 0.89286,-4.437264 4.07529,-13.180606 6.04598,-16.610582 l 1.73279,-3.015888 -2.79322,-0.10139 c -2.637,-0.09572 -8.40481,0.520661 -12.91034,1.379675 -1.51344,0.288548 -2.10479,0.571422 -2.3338,1.116399 -0.57477,1.367764 -1.33015,5.929745 -1.57233,9.495784 l -0.24165,3.558171 1.29154,2.092452 c 0.71034,1.150846 1.44625,2.596166 1.63536,3.211819 1.18033,3.842722 1.80637,15.401122 0.876,16.173262 -0.91438,0.75887 -1.65147,-0.40072 -2.61096,-4.10756 -0.51281,-1.98117 -1.10999,-3.66133 -1.32707,-3.73369 -0.26384,-0.0879 -0.47221,0.88147 -0.62856,2.9243 -0.42063,5.49605 -0.59509,6.18047 -1.5754,6.18047 -0.75293,0 -0.88909,-0.19436 -1.09455,-1.56231 -0.12906,-0.85927 -0.25098,-2.96838 -0.27095,-4.68691 -0.0408,-3.51103 -0.3055,-3.39914 -1.23217,0.52076 -0.77768,3.28965 -1.43504,4.63574 -2.13306,4.36788 -0.28914,-0.11095 -0.59104,-0.20173 -0.6709,-0.20173 -0.30576,0 -0.12309,-2.72403 0.37091,-5.53108 0.28333,-1.60998 0.4566,-2.98578 0.38504,-3.05733 -0.0716,-0.0716 -0.5634,0.9743 -1.09299,2.32413 -0.99967,2.548 -1.60469,3.35774 -2.2232,2.97548 -0.55701,-0.34425 -0.43878,-1.50854 0.47843,-4.71132 0.46245,-1.61481 1.0206,-4.18586 1.24033,-5.713448 0.21974,-1.527587 0.62252,-3.659253 0.89509,-4.737028 0.6227,-2.462329 0.61309,-5.038734 -0.0296,-7.935006 -0.65559,-2.954469 -1.02453,-8.726045 -0.71577,-11.197261 0.43158,-3.454236 2.27169,-5.281633 6.60186,-6.55625 1.34782,-0.39674 4.79403,-1.468661 7.65826,-2.382048 8.3858,-2.674188 17.91431,-4.861329 21.17889,-4.861329 2.85791,0 8.25726,1.336502 11.93895,2.95525 1.51475,0.665994 2.93029,1.210898 3.14565,1.210898 0.8654,0 3.08643,-1.417383 4.26469,-2.721574 2.10995,-2.335467 2.17484,-2.57019 2.17484,-7.867385 0,-4.378879 0.0821,-5.042129 0.8283,-6.693414 1.0188,-2.254465 3.61604,-4.670861 5.83196,-5.425902 3.16673,-1.079012 6.95848,-0.614975 11.05758,1.353233 4.42093,2.122743 7.18558,5.350682 7.66161,8.945538 0.30554,2.307318 -0.3786,5.626642 -1.4489,7.029887 l -0.9322,1.222179 0.56529,2.0147 c 0.84667,3.017515 0.76328,3.741691 -0.48082,4.175385 -0.57536,0.200573 -1.14756,0.64549 -1.27156,0.988706 -0.124,0.343215 -0.43915,0.858373 -0.70034,1.144795 -1.30094,1.426619 -1.84249,2.24277 -1.84249,2.776746 0,0.733071 -0.94245,1.571365 -2.08307,1.852854 -0.47737,0.117808 -2.31619,0.04402 -4.08626,-0.163984 l -3.21832,-0.37818 -3.52231,2.382814 c -4.2509,2.875705 -4.51004,3.215406 -3.61048,4.732922 2.01184,3.393865 2.69185,4.935493 3.48814,7.907772 1.10288,4.116713 1.09836,5.019455 -0.0482,9.620976 -0.81943,3.288674 -0.94604,4.577974 -1.07159,10.911854 l -0.14237,7.18253 1.50557,0.10823 c 1.68112,0.12084 4.0742,-0.10704 7.878,-0.75019 l 2.55347,-0.43174 -0.21866,-2.30595 c -0.12026,-1.26827 -0.39558,-3.26187 -0.61183,-4.43023 -0.46727,-2.52466 -0.26213,-3.25699 0.91233,-3.25699 0.9458,0 1.69684,0.92197 2.07479,2.54695 0.12595,0.54155 0.6189,1.37454 1.09545,1.85108 0.7265,0.72651 1.07617,0.831 2.16515,0.64702 2.08996,-0.3531 2.87744,0.14335 3.6102,2.276 0.79278,2.30733 0.99597,5.55214 0.44755,7.14736 -0.72767,2.11667 -1.22549,2.3654 -4.82112,2.40888 -3.12946,0.0378 -3.36198,0.0979 -7.19177,1.85824 -4.14658,1.90592 -9.92993,3.47502 -12.82945,3.48078 -1.83792,0.004 -4.58049,-1.23314 -5.98481,-2.69893 -1.15256,-1.20301 -1.45821,-2.73868 -1.98288,-9.96237 -0.2216,-3.05101 -0.47379,-5.66198 -0.56042,-5.80215 -0.19434,-0.31444 -5.14562,3.43861 -7.64461,5.79457 l -1.84128,1.73589 -0.86957,4.78307 c -1.51427,8.32916 -1.52202,8.91233 -0.15446,11.62769 0.69897,1.38786 2.17613,3.39437 3.63728,4.94075 1.35319,1.43211 3.09571,3.54951 3.87227,4.70533 1.87232,2.78674 8.77214,14.84115 10.60987,18.53613 1.36952,2.75357 1.45554,3.10124 1.41727,5.72845 -0.0319,2.1939 -0.2327,3.22513 -0.93098,4.78272 -1.06109,2.36685 -3.52047,5.09989 -5.74833,6.38795 -6.09068,3.5214 -28.68454,19.61082 -33.58159,23.91395 -0.9887,0.86879 -2.22477,2.93221 -2.22649,3.71678 -6.9e-4,0.33276 1.4293,1.73107 3.26446,3.19206 1.79617,1.42994 3.37029,2.76903 3.49804,2.97574 0.12776,0.20672 1.48216,1.00427 3.00978,1.77234 2.81045,1.41307 5.84948,3.84712 5.84948,4.68502 0,0.6595 -1.39696,1.53983 -2.42071,1.52547 -0.48262,-0.007 -1.26807,-0.2324 -1.74544,-0.50141 z"
             id="path3745"
             inkscape:connector-curvature="0" />
          <path
             style="fill:#6f6f6f;stroke-width:0.347179"
             d="m 264.11203,219.45801 c -0.61806,-0.26867 -2.2369,-0.64275 -3.59741,-0.83129 -2.02664,-0.28085 -2.83958,-0.59947 -4.49849,-1.76313 -3.02141,-2.1194 -4.26382,-2.44478 -9.33508,-2.44478 -5.25782,0 -7.52192,-0.54141 -8.84637,-2.11542 -2.29033,-2.72191 0.27052,-7.8754 6.53461,-13.15035 2.71534,-2.28656 8.55493,-8.48481 13.91163,-14.76607 5.87294,-6.8866 8.75943,-9.98855 11.20402,-12.04036 4.60634,-3.86623 5.83185,-4.68211 7.42822,-4.94535 l 1.51541,-0.24988 -1.21513,-1.02983 c -0.66832,-0.56641 -2.81838,-2.13814 -4.77792,-3.49274 -2.6028,-1.79928 -4.34826,-3.36247 -6.47784,-5.80141 -1.60328,-1.83618 -3.38406,-3.78398 -3.95729,-4.32844 l -1.04223,-0.98994 -0.49949,0.81635 c -0.27472,0.44899 -1.30843,2.30054 -2.29714,4.11455 -2.19392,4.02524 -7.138,11.0002 -10.31701,14.55493 -1.29383,1.44673 -3.63325,4.35125 -5.19873,6.45448 -3.62532,4.87064 -5.4333,6.51988 -8.95829,8.17174 -4.01318,1.88065 -6.32304,2.1827 -11.49379,1.503 -3.46176,-0.45505 -6.8707,-0.52091 -19.97093,-0.3858 -14.47779,0.14931 -16.0865,0.22511 -19.26843,0.90795 -4.80361,1.03084 -7.39153,1.91168 -11.6305,3.95861 -3.38963,1.6368 -3.96605,2.07477 -8.21613,6.24262 -5.24025,5.13888 -5.89573,5.40727 -5.76444,2.36031 0.0441,-1.02348 0.31833,-2.22433 0.6094,-2.66856 0.29106,-0.44423 0.7472,-1.74213 1.01364,-2.88422 0.28029,-1.2015 1.44278,-3.80228 2.75868,-6.17185 1.25084,-2.25241 2.90788,-5.72968 3.6823,-7.72725 1.7048,-4.39741 2.78758,-6.10625 4.33741,-6.84531 1.13056,-0.53913 1.22754,-0.52726 2.67801,0.32784 0.82773,0.48797 1.96383,1.36986 2.52467,1.95974 0.78885,0.8297 1.31691,1.07251 2.33253,1.07251 2.19688,0 16.44643,-2.36096 22.16543,-3.6725 11.72651,-2.68927 13.50899,-2.98633 17.18536,-2.86401 3.25729,0.10838 3.67264,0.20931 6.72263,1.63359 2.61839,1.22274 3.31022,1.42519 3.55604,1.04063 0.16786,-0.2626 0.70802,-1.80541 1.20034,-3.42847 2.39532,-7.89673 4.18318,-12.60599 7.44702,-19.61562 4.65623,-9.99998 5.83547,-12.86507 6.07304,-14.7551 0.72697,-5.78339 2.0967,-9.01588 6.65893,-15.71476 1.46116,-2.14547 3.09987,-4.79236 3.64158,-5.88198 1.18826,-2.39016 2.7779,-8.40911 3.96672,-15.019451 1.14689,-6.37713 4.10653,-15.205205 6.57996,-19.626811 1.01475,-1.81401 1.73814,-3.401869 1.60754,-3.528575 -0.72095,-0.699448 -16.8095,1.339778 -17.63218,2.234882 -0.60866,0.662237 -1.55985,6.200267 -1.76514,10.277065 l -0.18575,3.688662 1.10808,1.511097 c 0.60945,0.831101 1.33951,2.159061 1.62237,2.951021 1.04772,2.933437 1.96944,14.2541 1.30214,15.99305 -0.2834,0.73852 -1.48873,0.69905 -1.78296,-0.0584 -0.1298,-0.33416 -0.63265,-2.07887 -1.11743,-3.87714 -0.48479,-1.79826 -1.06261,-3.32983 -1.28405,-3.40348 -0.26973,-0.0897 -0.48221,0.76033 -0.64374,2.57522 -0.54886,6.167 -0.62695,6.5191 -1.47258,6.63923 -0.4303,0.0611 -0.86205,-0.0965 -0.95944,-0.35028 -0.0974,-0.25379 -0.30012,-2.41291 -0.45053,-4.79806 l -0.27347,-4.33663 -0.58945,1.99627 c -0.3242,1.09796 -0.82816,2.85555 -1.11991,3.90577 -0.4602,1.65652 -0.64417,1.90948 -1.38872,1.90948 -0.74305,0 -0.85825,-0.157 -0.85825,-1.16965 0,-0.64331 0.23889,-2.53956 0.53088,-4.2139 0.49904,-2.86172 0.47168,-4.21032 -0.0555,-2.73805 -0.12945,0.36149 -0.6697,1.63272 -1.20054,2.82496 -0.72534,1.62903 -1.10025,2.11588 -1.50871,1.95913 -0.71247,-0.2734 -0.68663,-0.84832 0.17802,-3.96022 0.84384,-3.03706 2.37687,-11.113493 2.64257,-13.921803 0.11774,-1.244397 -0.0953,-3.570784 -0.58805,-6.422811 -0.97051,-5.616777 -0.8092,-10.930738 0.39075,-12.872294 0.90413,-1.462908 2.69236,-2.664002 4.99189,-3.352878 0.95475,-0.286015 4.7824,-1.470162 8.50589,-2.631438 8.01168,-2.498667 18.28677,-4.883536 21.04047,-4.883536 2.7447,0 7.71185,1.221747 11.53863,2.838108 2.35756,0.995785 3.51188,1.310392 4.22957,1.152759 1.3191,-0.289722 3.95753,-2.656424 5.06152,-4.540244 0.86158,-1.470168 0.88371,-1.651677 0.64687,-5.305791 -0.22066,-3.404608 -0.16579,-4.022246 0.54789,-6.166841 1.58858,-4.773696 5.82081,-7.46009 10.92846,-6.936797 5.13685,0.526287 10.96794,3.828295 12.67726,7.178837 1.65825,3.250445 1.56853,7.802421 -0.20668,10.484936 l -0.93024,1.405684 0.56231,2.022507 c 0.85504,3.075406 0.76987,3.695247 -0.5549,4.03853 -0.67073,0.173803 -1.19103,0.56675 -1.30192,0.983251 -0.1884,0.707601 -0.74911,1.470191 -1.83381,2.494072 -0.33416,0.315422 -0.60757,0.816473 -0.60757,1.113446 0,0.296973 -0.25902,0.909752 -0.5756,1.361731 -0.56748,0.810203 -0.6368,0.818887 -4.92064,0.616477 l -4.34505,-0.205303 -1.24178,0.960587 c -0.68298,0.528322 -1.8667,1.326034 -2.6305,1.772693 -1.8056,1.055896 -3.2982,2.439643 -3.2982,3.057674 0,0.269654 0.55421,1.388175 1.23158,2.4856 1.43488,2.32469 2.7963,6.14318 3.35791,9.418238 0.36455,2.125926 0.31768,2.619205 -0.59498,6.261956 -0.89585,3.57565 -1.00434,4.6559 -1.13309,11.28276 l -0.14239,7.32851 1.45138,0.23208 c 1.52526,0.2439 1.62108,0.23454 7.06673,-0.69035 l 3.42561,-0.58181 -0.2379,-2.72724 c -0.13084,-1.49998 -0.38347,-3.2348 -0.56138,-3.85516 -0.58363,-2.03499 -0.41974,-3.0046 0.54897,-3.24773 1.15514,-0.28992 1.7286,0.24528 2.24711,2.09722 0.59331,2.1191 1.71446,3.11551 3.19703,2.84135 0.63127,-0.11674 1.61252,-0.0865 2.18058,0.0672 1.22446,0.33125 1.85253,1.93324 2.26474,5.77661 0.21152,1.97219 0.14326,2.68866 -0.37036,3.88688 -0.53955,1.25872 -0.84381,1.52691 -2.12563,1.87366 -0.82276,0.22257 -2.39112,0.32428 -3.48523,0.22603 -1.7365,-0.15594 -2.28799,-0.0357 -4.33974,0.94603 -5.26949,2.52141 -11.36303,4.36308 -14.43618,4.36308 -1.77949,0 -4.17781,-0.95383 -5.72217,-2.27574 -1.25617,-1.07523 -1.43578,-1.43406 -1.77182,-3.53974 -0.20568,-1.28878 -0.54314,-4.60208 -0.74993,-7.3629 -0.20678,-2.76082 -0.45054,-5.14033 -0.54168,-5.2878 -0.1993,-0.32248 -6.43695,4.41548 -8.22839,6.25008 -1.19667,1.22551 -1.32027,1.57046 -2.14169,5.97718 -1.47056,7.88927 -1.49345,8.91865 -0.25705,11.56077 0.71192,1.52135 2.00186,3.2693 3.95278,5.35626 2.99439,3.20321 6.02637,7.93919 11.91061,18.60448 3.80195,6.8911 4.0246,7.54725 3.68937,10.87263 -0.49425,4.9027 -2.43429,7.77325 -7.26201,10.74507 -5.82455,3.58546 -25.04117,17.14291 -30.344,21.4079 -3.39327,2.72916 -5.28864,5.20723 -4.75105,6.21171 0.18228,0.3406 0.89419,1.05287 1.58203,1.58283 0.68783,0.52997 2.40692,1.931 3.8202,3.11341 1.41327,1.18241 3.71463,2.70058 5.11411,3.3737 2.32408,1.11784 5.07597,3.47744 5.07597,4.35237 0,0.50341 -1.46002,1.40901 -2.24712,1.39382 -0.38715,-0.007 -1.20959,-0.23342 -1.82764,-0.50208 z"
             id="path3743"
             inkscape:connector-curvature="0" />
          <path
             style="fill:#4f4f4f;stroke-width:0.347179"
             d="m 264.26701,219.42057 c -0.53282,-0.28891 -2.12992,-0.65551 -3.54911,-0.81467 -2.17792,-0.24424 -2.86206,-0.49176 -4.38658,-1.58702 -3.01722,-2.16765 -3.75726,-2.36398 -9.84322,-2.61135 -6.06063,-0.24633 -7.85986,-0.76308 -9.06596,-2.60383 -1.45243,-2.21668 0.4518,-6.34037 4.87511,-10.55726 6.40365,-6.10483 10.10637,-10.00696 16.16853,-17.03924 7.3073,-8.47669 9.69216,-10.9083 13.94455,-14.21795 2.20738,-1.71802 3.39765,-2.4037 4.47029,-2.57522 1.42447,-0.22778 1.44617,-0.25112 0.8481,-0.912 -0.33759,-0.37302 -2.50545,-1.99845 -4.81748,-3.61206 -3.49617,-2.44005 -4.81723,-3.63859 -7.84906,-7.12113 -2.00496,-2.30301 -3.79861,-4.13669 -3.9859,-4.07485 -0.18728,0.0618 -1.33571,1.89706 -2.55206,4.07828 -3.11999,5.59492 -7.59931,11.86208 -11.51935,16.11711 -0.87958,0.95475 -2.92997,3.53255 -4.55642,5.72846 -3.40821,4.6015 -5.03116,6.17055 -7.85911,7.5981 -4.22756,2.13406 -7.55982,2.59224 -12.92454,1.77708 -2.81472,-0.42768 -25.9729,-0.53672 -32.28764,-0.15201 -4.24497,0.25861 -10.35038,1.47602 -13.67148,2.72609 -5.4497,2.05125 -7.77533,3.57901 -12.61855,8.28936 -5.15031,5.00903 -5.88237,5.33565 -5.73833,2.56029 0.0471,-0.90818 0.34248,-2.1478 0.65633,-2.75472 0.31385,-0.60692 0.78849,-2.04525 1.05475,-3.19629 0.26627,-1.15103 1.2423,-3.42076 2.16896,-5.04382 2.36278,-4.13844 3.02986,-5.52249 4.40862,-9.14697 1.43474,-3.77162 2.53263,-5.46972 4.07263,-6.29906 1.03211,-0.55583 1.22555,-0.56315 2.15498,-0.0815 0.5616,0.291 1.7481,1.16972 2.63666,1.9527 1.97432,1.73972 2.26134,1.75521 10.07088,0.54343 8.06247,-1.25102 10.81941,-1.77617 17.30299,-3.29588 8.83762,-2.07147 11.55666,-2.49747 15.07195,-2.36136 2.86516,0.11094 3.4527,0.26094 6.39657,1.63312 1.78288,0.83103 3.36491,1.37613 3.51561,1.21135 0.1507,-0.16479 0.59335,-1.31511 0.98366,-2.55627 3.28109,-10.43361 4.59672,-13.89466 8.27837,-21.77797 4.61872,-9.88982 5.66189,-12.5595 5.6721,-14.51609 0.0186,-3.56025 2.44317,-9.08213 6.5119,-14.8306 1.23755,-1.74846 2.69281,-3.96688 3.23391,-4.92983 1.47153,-2.61873 3.09641,-8.74675 5.02104,-18.936179 1.00903,-5.342026 4.40449,-14.279067 7.15329,-18.827858 0.43051,-0.712425 0.68003,-1.398038 0.55449,-1.523585 -0.63701,-0.637005 -17.49117,1.54929 -17.97469,2.331648 -0.39501,0.639149 -1.4006,6.60164 -1.69237,10.034678 l -0.2803,3.2982 1.40302,2.37543 c 1.81113,3.066386 2.21673,4.724079 2.69918,11.031446 0.45782,5.98533 0.26209,8.29181 -0.70368,8.29181 -0.77306,0 -1.43932,-1.55564 -2.26753,-5.29448 -0.39664,-1.79056 -0.75857,-2.69064 -1.08194,-2.69064 -0.26726,0 -0.48592,0.13968 -0.48592,0.3104 0,0.80476 -0.72247,7.59467 -0.88366,8.30482 -0.1343,0.59169 -0.38524,0.77486 -0.9513,0.69436 -0.72922,-0.10369 -0.78756,-0.35111 -1.13104,-4.79625 l -0.36215,-4.68691 -0.59259,1.99627 c -0.32592,1.09796 -0.8313,2.85555 -1.12305,3.90577 -0.4602,1.65652 -0.64417,1.90948 -1.38872,1.90948 -0.73931,0 -0.85657,-0.15636 -0.84614,-1.12833 0.007,-0.62058 0.23794,-2.37818 0.51394,-3.90576 0.82743,-4.57955 0.61487,-4.74178 -1.02349,-0.78116 -0.71276,1.72305 -1.14289,2.34346 -1.6247,2.34346 -0.86174,0 -0.83521,-0.61341 0.18088,-4.18115 0.4599,-1.61481 1.02366,-4.10775 1.25279,-5.539859 0.22915,-1.432114 0.70672,-4.007946 1.06128,-5.724076 l 0.64466,-3.12023 -0.87948,-5.038477 c -0.7377,-4.226213 -0.8423,-5.62615 -0.64889,-8.683853 0.3419,-5.405222 1.48201,-6.811997 6.76012,-8.341309 1.43212,-0.414949 4.9473,-1.503016 7.81153,-2.417926 2.86423,-0.91491 6.53564,-1.983108 8.15871,-2.373774 7.9791,-1.920547 10.87739,-2.490046 12.6723,-2.490046 2.52283,0 8.27848,1.46052 11.73384,2.977508 1.4891,0.653752 3.0557,1.18864 3.48133,1.18864 1.45795,0 4.70332,-2.773064 5.85275,-5.000975 0.62411,-1.209711 0.67438,-1.751463 0.46709,-5.034095 -0.20137,-3.188868 -0.13493,-3.989933 0.49913,-6.018222 0.94012,-3.007392 3.19565,-5.395799 6.16044,-6.523386 1.83368,-0.697395 2.27747,-0.734584 5.06642,-0.424552 5.37727,0.597761 10.75897,3.826519 12.57918,7.546893 0.83797,1.712739 0.91195,2.18699 0.80232,5.142663 -0.10857,2.926537 -0.22296,3.40327 -1.13076,4.712295 l -1.00997,1.456362 0.63929,2.567241 c 0.69755,2.801238 0.50996,3.511009 -0.98447,3.724802 -0.42372,0.06062 -0.81,0.409535 -0.88428,0.798738 -0.0725,0.380104 -0.66,1.234817 -1.30546,1.899361 -0.64548,0.664544 -1.17359,1.451459 -1.17359,1.748699 0,0.29724 -0.25921,0.91051 -0.57602,1.362821 -0.5692,0.812649 -0.62764,0.819768 -4.93697,0.601361 l -4.36095,-0.221024 -1.22545,0.968031 c -0.67401,0.532417 -1.9285,1.376243 -2.78777,1.875169 -0.85927,0.498927 -1.98536,1.35239 -2.50242,1.896586 l -0.94012,0.98945 1.52772,2.60011 c 1.46897,2.500123 3.12673,7.314187 3.52554,10.238045 0.12347,0.905203 -0.1844,3.055543 -0.88424,6.176078 -0.99334,4.429261 -1.07366,5.278171 -1.07366,11.348841 v 6.56148 l 1.57372,0.23599 c 1.48935,0.22334 9.6635,-0.89957 10.15959,-1.39566 0.1737,-0.1737 -0.21007,-3.88648 -0.85013,-8.22447 -0.15452,-1.04724 -0.0689,-1.30548 0.49159,-1.48339 1.12495,-0.35704 1.75334,0.12547 2.37966,1.82723 0.95951,2.60708 1.66526,3.17991 3.92542,3.18611 1.06467,0.003 2.10532,0.1201 2.31255,0.26039 0.49802,0.33714 1.1956,2.87374 1.50229,5.46275 0.36629,3.09212 -0.40805,5.05181 -2.24156,5.67297 -0.87269,0.29565 -2.15538,0.3962 -3.51824,0.27579 -2.04317,-0.18052 -2.34117,-0.0994 -6.28792,1.7119 -4.18348,1.91993 -10.37443,3.64182 -12.91876,3.5931 -2.79532,-0.0535 -6.33386,-2.28725 -6.92876,-4.37381 -0.20779,-0.72879 -0.61619,-4.20994 -0.90757,-7.73587 -0.29138,-3.52593 -0.58613,-6.46714 -0.65501,-6.53602 -0.274,-0.274 -7.9353,5.78068 -8.95515,7.07721 -0.69014,0.87736 -2.67911,10.67973 -2.7433,13.51996 -0.0475,2.10156 1.77496,5.37931 4.70639,8.46459 1.37578,1.44799 3.20667,3.72633 4.06865,5.06297 2.34628,3.63832 8.75049,14.91391 10.35414,18.23006 1.27234,2.63104 1.40779,3.16879 1.40779,5.58923 0,5.50993 -2.22689,8.58225 -9.52118,13.13584 -2.27696,1.42144 -8.21372,5.4627 -13.19281,8.98061 -14.50944,10.25142 -17.91678,12.96367 -19.23679,15.31248 l -0.81007,1.44144 1.33875,1.28999 c 2.68306,2.58537 7.26714,6.09417 8.96087,6.85895 2.21147,0.99856 4.49119,2.66266 5.26447,3.84282 0.58497,0.89279 0.57914,0.93867 -0.19954,1.5692 -0.95981,0.77722 -1.94684,0.80645 -3.25626,0.0964 z"
             id="path3741"
             inkscape:connector-curvature="0" />
          <path
             style="fill:#2e2e2e;stroke-width:0.347179"
             d="m 264.36853,219.41988 c -0.66793,-0.28964 -2.36301,-0.67224 -3.76683,-0.85023 -2.08468,-0.26431 -2.85786,-0.54783 -4.21922,-1.54716 -3.28676,-2.41271 -4.44855,-2.73494 -10.41515,-2.88871 -4.33701,-0.11177 -5.62362,-0.26212 -6.63016,-0.77477 -4.46589,-2.27459 -2.58985,-7.30893 5.3545,-14.36883 3.33958,-2.96778 7.8271,-7.77895 14.28115,-15.31114 5.57009,-6.50057 8.44404,-9.47775 12.12486,-12.56039 3.08236,-2.58143 4.32999,-3.32613 6.28935,-3.75406 l 1.04154,-0.22747 -1.33882,-1.16435 c -0.73636,-0.64039 -2.92358,-2.26257 -4.86051,-3.60483 -2.79986,-1.94027 -4.26458,-3.30016 -7.14616,-6.63474 -1.99347,-2.30685 -3.73934,-4.26524 -3.87971,-4.352 -0.14036,-0.0867 -1.05612,1.32356 -2.03502,3.13404 -3.1324,5.79339 -7.91807,12.68031 -11.67792,16.80537 -0.93318,1.02382 -3.25899,3.91027 -5.16848,6.41433 -3.86234,5.06502 -5.66682,6.63047 -9.54742,8.28274 -2.36629,1.00752 -2.93641,1.10954 -6.24922,1.11829 -2.00496,0.005 -6.38334,-0.20691 -9.72973,-0.47156 -9.12988,-0.72204 -29.41272,-0.0523 -34.88277,1.15187 -4.51718,0.99439 -7.39657,2.04155 -11.63985,4.23311 -2.66087,1.37429 -3.69324,2.19252 -6.9801,5.5322 -4.25405,4.32242 -5.36118,5.13803 -5.86774,4.32273 -0.41139,-0.66211 -0.0462,-2.96888 0.71197,-4.49728 0.33152,-0.66832 0.78439,-2.07439 1.00638,-3.12461 0.22199,-1.05022 1.00319,-2.92498 1.736,-4.16615 1.913,-3.24008 3.4427,-6.35173 4.73585,-9.63346 1.56153,-3.96283 2.70539,-5.79356 4.0167,-6.42864 1.4153,-0.68545 2.22681,-0.39459 4.63198,1.66022 1.62096,1.38482 2.00937,1.55626 3.52593,1.55626 2.66003,0 18.01665,-2.65202 25.12721,-4.33935 12.06044,-2.86194 15.2063,-2.94214 20.40979,-0.52034 1.90559,0.88689 3.34587,1.37114 3.52133,1.18392 0.16328,-0.17424 1.2648,-3.36329 2.44782,-7.08678 2.31127,-7.27463 3.59696,-10.43385 8.36992,-20.56665 3.13168,-6.64843 4.13519,-9.34403 4.13519,-11.10792 0,-3.66283 2.68738,-9.5812 7.23345,-15.93007 1.17838,-1.64568 2.59606,-3.99245 3.15041,-5.21504 1.01702,-2.24299 2.65203,-8.40118 3.67419,-13.83869 0.30511,-1.623062 0.7706,-3.96652 1.03442,-5.207685 0.81922,-3.854069 3.9854,-12.324404 5.77061,-15.437832 0.93695,-1.634057 1.70355,-3.125362 1.70355,-3.314013 0,-0.18865 -0.72698,-0.343001 -1.6155,-0.343001 -2.39194,0 -10.65145,0.998527 -13.81849,1.670574 l -2.76196,0.58609 -0.6291,3.124611 c -0.34601,1.718536 -0.77113,4.754693 -0.94472,6.747014 -0.33971,3.898987 -0.33894,3.902119 1.76088,7.225271 1.32583,2.098249 1.73055,4.492527 1.9369,11.458581 0.19607,6.61909 0.19098,6.68319 -0.53054,6.68319 -0.75666,0 -1.41565,-1.63748 -2.48001,-6.16243 -0.23975,-1.01922 -0.62347,-1.82269 -0.87051,-1.82269 -0.49768,0 -0.73532,1.23923 -1.08123,5.63857 -0.25377,3.22733 -0.73884,4.19071 -1.70594,3.38809 -0.35805,-0.29715 -0.53345,-1.15119 -0.56135,-2.73315 -0.0223,-1.26552 -0.1462,-3.31645 -0.27529,-4.55761 l -0.23471,-2.25666 -0.59266,1.99628 c -0.32596,1.09795 -0.83352,2.86295 -1.12791,3.92221 -0.53587,1.9282 -1.26847,2.65844 -1.96662,1.96029 -0.26471,-0.26472 -0.19623,-1.53572 0.23726,-4.40337 0.33516,-2.21718 0.53312,-4.10751 0.4399,-4.20073 -0.0932,-0.0932 -0.67574,1.0864 -1.29449,2.62138 -1.02885,2.55234 -1.72322,3.31556 -2.24637,2.46908 -0.10937,-0.17697 0.2646,-2.24702 0.83105,-4.60012 0.56645,-2.35309 1.43513,-6.465579 1.93039,-9.138857 l 0.90048,-4.860506 -0.72482,-3.818969 c -0.51046,-2.689488 -0.71986,-5.146019 -0.70804,-8.305963 0.0153,-4.090468 0.0903,-4.612374 0.84825,-5.905774 1.02971,-1.757077 2.8193,-2.793535 6.94717,-4.023522 1.73394,-0.516666 5.41796,-1.647988 8.18672,-2.51405 6.1289,-1.917115 17.09104,-4.421334 19.35155,-4.420719 2.36392,6.59e-4 8.16692,1.485099 11.45229,2.929589 1.54628,0.67986 3.14538,1.236109 3.55357,1.236109 1.17708,0 2.51479,-0.848108 4.23002,-2.681829 2.43816,-2.606583 2.49963,-2.805193 2.22894,-7.200915 -0.21148,-3.434152 -0.15335,-4.121059 0.52304,-6.181499 1.0038,-3.057776 3.75668,-5.826049 6.60638,-6.643311 5.84066,-1.675034 15.08548,2.418678 17.36726,7.690416 0.59328,1.370691 0.69193,2.189426 0.58147,4.825908 -0.11832,2.824145 -0.24459,3.336143 -1.14216,4.631343 l -1.00913,1.456182 0.59253,2.312237 c 0.78707,3.071336 0.77607,3.136495 -0.62842,3.723327 -0.66832,0.279242 -1.21512,0.747706 -1.21512,1.04103 0,0.293325 -0.53757,1.086834 -1.1946,1.763354 -0.65703,0.676519 -1.29465,1.685573 -1.41694,2.242342 -0.12228,0.556769 -0.51183,1.167238 -0.86565,1.356599 -0.7695,0.411827 -4.44188,0.427556 -6.50823,0.02788 -1.68292,-0.325518 -1.90906,-0.228018 -6.23274,2.687265 -3.86139,2.603573 -3.92637,2.760495 -2.22919,5.383536 2.18889,3.383013 4.1031,9.903577 3.67718,12.526 -0.1267,0.780066 -0.60457,2.980608 -1.06194,4.890093 -0.73116,3.052514 -0.83164,4.295394 -0.83204,10.291434 -3.5e-4,5.89862 0.0737,6.8481 0.54872,7.03038 0.91431,0.35085 3.27426,0.23696 6.568,-0.31699 5.1012,-0.85793 4.68776,-0.62031 4.68089,-2.6903 -0.003,-0.99884 -0.23766,-2.90963 -0.52077,-4.2462 -0.65416,-3.08833 -0.64933,-3.20187 0.15447,-3.63205 1.07884,-0.57737 1.63705,-0.0984 2.4347,2.08927 0.41269,1.13183 1.04459,2.21535 1.40423,2.40783 0.35964,0.19247 1.51422,0.34995 2.56572,0.34995 2.11881,0 2.17874,0.0512 3.05074,2.60384 1.13783,3.33089 0.67823,7.72742 -0.89865,8.59653 -0.39603,0.21828 -2.12614,0.40827 -3.84467,0.4222 -3.00596,0.0244 -3.26965,0.0928 -6.94358,1.80073 -5.49593,2.555 -11.6999,3.97049 -14.31547,3.26619 -2.25051,-0.606 -4.70937,-2.48037 -5.20703,-3.96927 -0.23522,-0.7037 -0.66384,-4.19112 -0.9525,-7.74981 -0.28866,-3.55869 -0.5987,-6.54422 -0.68897,-6.63449 -0.16878,-0.16878 -6.57339,4.57604 -8.23423,6.10027 -1.31819,1.20977 -1.53918,1.93254 -2.7179,8.88905 l -1.05191,6.20806 1.12762,2.47141 c 0.78256,1.71514 1.87932,3.2682 3.5841,5.07525 3.09563,3.28131 4.41223,5.23341 9.41868,13.9648 6.07687,10.59822 6.71275,12.02673 6.71275,15.08005 0,5.39307 -2.05852,8.45111 -8.35865,12.4172 -5.67554,3.5729 -24.08256,16.59519 -28.71798,20.31692 -4.34445,3.48811 -6.03006,5.74799 -5.18609,6.95294 0.28151,0.40192 1.28495,1.31058 2.22986,2.01925 0.9449,0.70866 2.56638,2.01565 3.60328,2.90442 1.0369,0.88876 2.95156,2.12489 4.25481,2.74694 2.23601,1.06729 5.44199,3.69966 5.44199,4.46832 0,0.34766 -1.79094,1.4232 -2.32622,1.397 -0.15269,-0.007 -0.82411,-0.25057 -1.49204,-0.54021 z"
             id="path3739"
             inkscape:connector-curvature="0" />
          <path
             style="fill:#000000;stroke-width:0.347179"
             d="m 263.8987,219.23184 c -0.35349,-0.20545 -1.75077,-0.51267 -3.10506,-0.68272 -2.05586,-0.25815 -2.83813,-0.56102 -4.73857,-1.83464 -3.21922,-2.15742 -5.14947,-2.64285 -10.50908,-2.64285 -5.01398,0 -6.1997,-0.31898 -7.66678,-2.0625 -1.14892,-1.36542 -1.17615,-2.45015 -0.11815,-4.70749 1.15819,-2.47112 3.20808,-4.92132 6.53396,-7.80992 3.39539,-2.94899 6.80841,-6.61412 15.19648,-16.31902 3.3833,-3.91444 7.20143,-8.09661 8.48473,-9.29369 3.55919,-3.3201 7.2007,-5.93058 8.71048,-6.24426 0.739,-0.15354 1.39951,-0.44677 1.46779,-0.65162 0.0683,-0.20485 -1.92857,-1.83256 -4.43745,-3.61714 -3.17422,-2.25783 -5.36887,-4.14367 -7.2158,-6.20048 -1.45981,-1.62568 -3.29598,-3.65237 -4.08037,-4.50375 l -1.42617,-1.54796 -0.85962,1.53473 c -3.40361,6.07667 -4.51952,7.89032 -7.01256,11.39723 -1.5485,2.17826 -3.99743,5.30287 -5.44206,6.94358 -1.44462,1.64071 -3.98879,4.8095 -5.6537,7.04175 -3.58115,4.80145 -4.37451,5.51971 -8.04832,7.2864 -3.9549,1.90187 -6.26926,2.26464 -10.86843,1.7036 -5.45631,-0.6656 -17.33428,-0.84091 -28.178,-0.41589 -10.84842,0.42521 -14.87889,1.08501 -20.32793,3.32776 -5.6302,2.31731 -7.31052,3.45609 -11.90565,8.06868 -2.35712,2.36607 -4.46623,4.24264 -4.68692,4.17015 -0.70766,-0.23245 -0.67424,-2.97264 0.0533,-4.36843 0.36884,-0.70764 0.85345,-2.14086 1.0769,-3.18493 0.23327,-1.08996 1.4188,-3.74628 2.78408,-6.23804 1.30779,-2.38686 2.95878,-5.86499 3.66886,-7.72918 1.50215,-3.94363 2.35431,-5.32391 3.95131,-6.40013 1.10266,-0.74309 1.20752,-0.7532 2.2484,-0.21685 0.60049,0.30942 1.85852,1.23204 2.79562,2.05026 1.63013,1.42333 1.78029,1.47987 3.47179,1.30738 3.96393,-0.40423 18.7117,-2.95774 22.64985,-3.92173 8.10617,-1.98423 11.30579,-2.52527 15.22473,-2.57441 l 3.81897,-0.0479 3.22542,1.50727 c 1.77398,0.829 3.4372,1.42601 3.69605,1.32668 0.25884,-0.0993 0.70894,-0.93383 1.00021,-1.85445 3.35616,-10.60787 4.80836,-14.51865 7.75314,-20.87929 5.91288,-12.77162 5.98222,-12.95107 6.54034,-16.927 0.4557,-3.24631 0.72923,-4.07449 2.4692,-7.47612 1.07621,-2.10396 2.96589,-5.2308 4.19931,-6.94852 1.23341,-1.71772 2.77294,-4.24656 3.42118,-5.61966 1.19981,-2.54141 2.77427,-8.31979 3.80196,-13.95343 1.48372,-8.133554 4.12723,-16.067313 7.05644,-21.17792 l 1.79091,-3.124611 -2.09241,-0.103675 c -2.26371,-0.112163 -11.93281,1.03637 -14.71967,1.74846 l -1.71531,0.438289 -0.61213,2.777432 c -0.33668,1.527588 -0.78497,4.626896 -0.99619,6.887354 l -0.38406,4.109923 1.39242,2.139299 c 2.04782,3.146237 2.4935,5.24684 2.71891,12.815059 0.169,5.67385 0.12624,6.5096 -0.33304,6.5096 -1.0164,0 -1.3393,-0.80292 -2.8273,-7.03037 -0.12547,-0.52511 -0.44709,-0.95475 -0.7147,-0.95475 -0.58527,0 -0.78522,0.9241 -1.08922,5.0341 -0.27616,3.73358 -0.57658,4.50581 -1.55017,3.98476 -0.59169,-0.31666 -0.68312,-0.7559 -0.70552,-3.38941 -0.0142,-1.66408 -0.14013,-3.72864 -0.27996,-4.58791 l -0.25424,-1.5623 -0.58077,1.90948 c -0.31943,1.05022 -0.82488,2.81522 -1.12323,3.92222 -0.53564,1.98742 -1.26476,2.75614 -1.95731,2.0636 -0.24268,-0.24269 -0.16826,-1.57214 0.23437,-4.18673 0.32448,-2.10712 0.52462,-4.02716 0.44475,-4.26676 -0.0799,-0.23961 -0.59265,0.64724 -1.13952,1.97076 -1.14604,2.77361 -1.74361,3.58436 -2.26072,3.06724 -0.23646,-0.23645 -0.11964,-1.19424 0.35811,-2.93614 0.38997,-1.42187 1.08256,-4.61621 1.53908,-7.098538 0.45652,-2.48233 1.02206,-5.376008 1.25676,-6.430394 0.37211,-1.671674 0.33081,-2.451507 -0.32267,-6.092252 -0.90963,-5.067789 -1.03699,-12.126214 -0.24638,-13.655073 0.94599,-1.829355 2.81252,-3.089263 6.00549,-4.053717 1.67139,-0.504852 5.38235,-1.66327 8.24658,-2.574262 5.60179,-1.781699 7.52451,-2.294001 13.71357,-3.653941 6.33068,-1.391058 7.26176,-1.41706 11.80409,-0.329649 2.1959,0.52569 5.14473,1.48021 6.55294,2.121157 1.40822,0.640947 2.979,1.165357 3.49062,1.165357 1.23693,0 3.78204,-1.650924 4.9897,-3.23664 1.70677,-2.241075 1.97092,-3.261437 1.59356,-6.155593 -0.60484,-4.638784 0.40695,-8.205092 3.07139,-10.825908 2.11625,-2.081595 3.99581,-2.76359 7.48383,-2.715503 5.58215,0.07696 11.66464,3.563906 13.6607,7.831358 1.34246,2.870082 0.97284,7.997983 -0.71056,9.858126 -0.68734,0.759495 -0.69497,1.802941 -0.0293,3.997417 0.71855,2.368615 0.67598,2.559723 -0.69811,3.133853 -0.66832,0.279242 -1.21513,0.684679 -1.21513,0.900973 0,0.216293 -0.54681,1.060565 -1.21513,1.876161 -0.66831,0.815596 -1.21512,1.641031 -1.21512,1.834299 0,0.193268 -0.34087,0.78474 -0.75748,1.314381 -0.75502,0.95985 -0.76773,0.962271 -3.90577,0.74416 -1.73154,-0.120353 -3.46073,-0.303876 -3.84262,-0.407829 -0.80911,-0.220239 -7.91209,4.281198 -8.50572,5.390404 -0.2973,0.555514 -0.0776,1.178457 1.19172,3.378527 1.77557,3.077596 3.37827,8.11718 3.4035,10.702018 0.009,0.96545 -0.39919,3.545639 -0.90803,5.733748 -0.86332,3.71249 -0.91884,4.4421 -0.83074,10.91667 l 0.0944,6.93828 2.08308,0.0888 c 1.14569,0.0489 3.72349,-0.18994 5.72845,-0.53069 l 3.64538,-0.61953 0.10688,-1.86882 c 0.0588,-1.02784 -0.14236,-3.09887 -0.44699,-4.60228 -0.30463,-1.50341 -0.46068,-2.88427 -0.34678,-3.06857 0.2971,-0.48071 1.75742,-0.41345 2.1469,0.0989 0.18145,0.23868 0.60476,1.17785 0.94069,2.08703 0.73443,1.98774 1.30657,2.3395 3.80521,2.3395 2.11667,0 2.1721,0.0471 3.06189,2.60384 1.17438,3.37444 0.59862,7.91434 -1.08722,8.57282 -0.4894,0.19116 -2.2959,0.38725 -4.01443,0.43577 -2.9151,0.0823 -3.35103,0.19635 -6.50138,1.70104 -3.50086,1.67211 -6.75814,2.69266 -10.75549,3.36984 -2.92976,0.49633 -5.0545,-0.11604 -7.3191,-2.10941 -1.77072,-1.55865 -1.813,-1.71738 -2.33808,-8.77699 -0.48553,-6.52791 -0.65825,-7.618 -1.17557,-7.41949 -0.67369,0.25852 -7.56976,5.60541 -8.44407,6.54714 -0.8218,0.88517 -1.60629,4.12438 -2.6974,11.13771 l -0.58145,3.73742 1.0525,2.24913 c 0.67249,1.43709 1.93221,3.17857 3.48903,4.82339 2.96712,3.13482 5.68113,7.23737 10.81516,16.34844 5.21267,9.25061 5.53654,10.01945 5.52635,13.11904 -0.0148,4.49793 -2.34999,8.476 -6.41457,10.92738 -3.51861,2.12209 -9.00184,5.84137 -17.70613,12.01008 -13.82125,9.79509 -16.68479,12.11894 -17.92215,14.54436 -0.82992,1.62678 -0.58737,2.17585 1.68306,3.80994 0.91167,0.65615 2.59496,2.01466 3.74065,3.0189 1.14569,1.00424 3.17669,2.33939 4.51332,2.96699 1.47056,0.69048 3.04049,1.77474 3.97558,2.74569 1.49211,1.54935 1.52199,1.62223 0.86794,2.11684 -0.79247,0.5993 -2.82902,0.67514 -3.75033,0.13968 z"
             id="path3737"
             inkscape:connector-curvature="0" />
        </g>
      </g>
      <flowRoot
         transform="matrix(0.44247323,0,0,0.40046286,-39.755145,-113.82092)"
         style="font-style:normal;font-weight:normal;font-size:93.33333588px;line-height:1.25;font-family:sans-serif;letter-spacing:0px;word-spacing:0px;fill:#000000;fill-opacity:1;stroke:none"
         id="flowRoot3753"
         xml:space="preserve"><flowRegion
           style="font-size:93.33333588px"
           id="flowRegion3755"><rect
             style="font-size:93.33333588px"
             y="803.94824"
             x="140"
             height="112.85714"
             width="585.71429"
             id="rect3757" /></flowRegion><flowPara
           id="flowPara3759">FullMove</flowPara></flowRoot>      <g
         transform="matrix(0.80010872,0,0,0.8286977,243.20605,70.954619)"
         id="g3788">
        <path
           sodipodi:type="star"
           id="path3782"
           sodipodi:sides="5"
           sodipodi:cx="-159.88393"
           sodipodi:cy="55.473213"
           sodipodi:r1="96.489845"
           sodipodi:r2="1.2553908"
           sodipodi:arg1="0.95236833"
           sodipodi:arg2="1.5806869"
           inkscape:flatsided="false"
           inkscape:rounded="0"
           inkscape:randomized="0"
           d="m -103.94345,134.09226 -55.95289,-77.363717 -57.47218,76.241837 56.28687,-77.121057 -90.27018,-31.099266 90.74008,29.700275 1.68214,-95.462245 -0.20641,95.476842 91.309803,-27.899647 -90.867653,29.307658 z"
           inkscape:transform-center-x="-0.29490336"
           inkscape:transform-center-y="-8.933043"
           style="stroke-width:0.26458332" />
        <path
           sodipodi:type="star"
           id="path3784"
           sodipodi:sides="5"
           sodipodi:cx="-159.72614"
           sodipodi:cy="55.384533"
           sodipodi:r1="67.213753"
           sodipodi:r2="0.87449127"
           sodipodi:arg1="0.27728468"
           sodipodi:arg2="0.90560322"
           inkscape:flatsided="false"
           inkscape:rounded="0"
           inkscape:randomized="0"
           d="m -95.079794,73.783966 -64.106596,-17.711385 1.93817,66.480009 -2.9655,-66.44211 -62.62732,22.386765 62.27382,-23.3521 -40.64399,-52.6442319 41.45284,52.0097229 37.50795,-54.92268972 -36.65455,55.49587672 z"
           inkscape:transform-center-x="-0.76572058"
           inkscape:transform-center-y="5.6857369"
           style="stroke-width:0.26458332" />
      </g>
    </g>
  </g>
</svg>
